<svg width="36" height="36" viewBox="0 0 36 36" fill="none" xmlns="http://www.w3.org/2000/svg">
<path fill-rule="evenodd" clip-rule="evenodd" d="M24.408 15.408C24.408 16.9993 23.7759 18.5254 22.6507 19.6507C21.5254 20.7759 19.9993 21.408 18.408 21.408C16.8167 21.408 15.2906 20.7759 14.1654 19.6507C13.0402 18.5254 12.408 16.9993 12.408 15.408C12.408 13.8167 13.0402 12.2906 14.1654 11.1654C15.2906 10.0402 16.8167 9.40802 18.408 9.40802C19.9993 9.40802 21.5254 10.0402 22.6507 11.1654C23.7759 12.2906 24.408 13.8167 24.408 15.408ZM21.408 15.408C21.408 16.2037 21.0919 16.9667 20.5293 17.5293C19.9667 18.0919 19.2037 18.408 18.408 18.408C17.6124 18.408 16.8493 18.0919 16.2867 17.5293C15.7241 16.9667 15.408 16.2037 15.408 15.408C15.408 14.6124 15.7241 13.8493 16.2867 13.2867C16.8493 12.7241 17.6124 12.408 18.408 12.408C19.2037 12.408 19.9667 12.7241 20.5293 13.2867C21.0919 13.8493 21.408 14.6124 21.408 15.408Z" fill="#7F7F7F"/>
<path fill-rule="evenodd" clip-rule="evenodd" d="M8.69101 24.777C6.75726 22.9359 5.41291 20.5626 4.82796 17.9575C4.243 15.3523 4.44372 12.6321 5.40472 10.141C6.36572 7.64987 8.04384 5.49967 10.2269 3.96228C12.4099 2.4249 14.9998 1.56939 17.6691 1.50394C20.3383 1.43848 22.9671 2.16603 25.2228 3.59457C27.4786 5.02311 29.2601 7.08849 30.342 9.52951C31.4239 11.9705 31.7577 14.6776 31.3012 17.3083C30.8446 19.939 29.6182 22.3753 27.777 24.309L18.468 34.086L8.69101 24.777ZM25.605 22.2405L18.3645 29.8455L10.7595 22.605C9.25556 21.173 8.21001 19.3272 7.75508 17.301C7.30014 15.2748 7.45626 13.1592 8.20368 11.2217C8.9511 9.28417 10.2563 7.61181 11.9541 6.41607C13.652 5.22032 15.6663 4.55489 17.7423 4.50392C19.8183 4.45295 21.8629 5.01872 23.6174 6.1297C25.3718 7.24068 26.7575 8.84697 27.5991 10.7454C28.4407 12.6439 28.7005 14.7493 28.3455 16.7954C27.9906 18.8415 27.0369 20.7364 25.605 22.2405Z" fill="#7F7F7F"/>
</svg>
