<svg width="70" height="70" viewBox="0 0 70 70" fill="none" xmlns="http://www.w3.org/2000/svg">
<path d="M35 66.1111C41.1532 66.1111 47.1682 64.2865 52.2844 60.8679C57.4006 57.4494 61.3882 52.5905 63.7429 46.9057C66.0977 41.2209 66.7138 34.9655 65.5133 28.9305C64.3129 22.8955 61.3499 17.3521 56.9989 13.0011C52.6479 8.65012 47.1045 5.68707 41.0695 4.48665C35.0345 3.28622 28.7791 3.90232 23.0943 6.25705C17.4095 8.61178 12.5506 12.5994 9.13208 17.7156C5.71355 22.8318 3.88891 28.8468 3.88891 35C3.88891 43.2512 7.16668 51.1644 13.0011 56.9989C18.8356 62.8333 26.7488 66.1111 35 66.1111ZM19.4445 35.8361C19.9641 35.3278 20.662 35.0431 21.3889 35.0431C22.1158 35.0431 22.8138 35.3278 23.3334 35.8361L32.2778 44.7222L32.2778 17.2277C32.2778 16.5058 32.5646 15.8134 33.0751 15.3028C33.5856 14.7923 34.278 14.5055 35 14.5055C35.722 14.5055 36.4144 14.7923 36.9249 15.3028C37.4354 15.8134 37.7222 16.5058 37.7222 17.2277L37.7222 44.45L46.3361 35.8361C46.8518 35.3204 47.5513 35.0307 48.2806 35.0307C49.0099 35.0307 49.7093 35.3204 50.225 35.8361C50.7407 36.3518 51.0304 37.0512 51.0304 37.7805C51.0304 38.5098 50.7407 39.2093 50.225 39.725L34.8445 55.0278L19.4445 39.6861C19.1917 39.4333 18.9911 39.1332 18.8543 38.8029C18.7175 38.4726 18.647 38.1186 18.647 37.7611C18.647 37.4036 18.7175 37.0496 18.8543 36.7193C18.9911 36.389 19.1917 36.0889 19.4445 35.8361Z" fill="#2E1B06"/>
</svg>
